  0
SECTION
  2
HEADER
  9
$ACADVER
  1
AC1009
  9
$DWGCODEPAGE
  3
ansi_1252
  9
$INSBASE
 10
0.0
 20
0.0
 30
0.0
  9
$EXTMIN
 10
5.998113368722287
 20
5.477397616379159
 30
0.0
  9
$EXTMAX
 10
131.2641305605829
 20
130.7434148082399
 30
0.0
  9
$LIMMIN
 10
0.0
 20
0.0
  9
$LIMMAX
 10
12.0
 20
9.0
  9
$ORTHOMODE
 70
     0
  9
$REGENMODE
 70
     1
  9
$FILLMODE
 70
     1
  9
$QTEXTMODE
 70
     0
  9
$MIRRTEXT
 70
     1
  9
$DRAGMODE
 70
     2
  9
$LTSCALE
 40
1.0
  9
$OSMODE
 70
    37
  9
$ATTMODE
 70
     1
  9
$TEXTSIZE
 40
0.2
  9
$TRACEWID
 40
0.05
  9
$TEXTSTYLE
  7
STANDARD
  9
$CLAYER
  8
DEFAULT
  9
$CELTYPE
  6
BYLAYER
  9
$CECOLOR
 62
   256
  9
$DIMSCALE
 40
1.0
  9
$DIMASZ
 40
0.18
  9
$DIMEXO
 40
0.0625
  9
$DIMDLI
 40
0.38
  9
$DIMRND
 40
0.0
  9
$DIMDLE
 40
0.0
  9
$DIMEXE
 40
0.18
  9
$DIMTP
 40
0.0
  9
$DIMTM
 40
0.0
  9
$DIMTXT
 40
0.18
  9
$DIMCEN
 40
0.09
  9
$DIMTSZ
 40
0.0
  9
$DIMTOL
 70
     0
  9
$DIMLIM
 70
     0
  9
$DIMTIH
 70
     1
  9
$DIMTOH
 70
     1
  9
$DIMSE1
 70
     0
  9
$DIMSE2
 70
     0
  9
$DIMTAD
 70
     0
  9
$DIMZIN
 70
     0
  9
$DIMBLK
  1

  9
$DIMASO
 70
     1
  9
$DIMSHO
 70
     1
  9
$DIMPOST
  1

  9
$DIMAPOST
  1

  9
$DIMALT
 70
     0
  9
$DIMALTD
 70
     2
  9
$DIMALTF
 40
25.4
  9
$DIMLFAC
 40
1.0
  9
$DIMTOFL
 70
     0
  9
$DIMTVP
 40
0.0
  9
$DIMTIX
 70
     0
  9
$DIMSOXD
 70
     0
  9
$DIMSAH
 70
     0
  9
$DIMBLK1
  1

  9
$DIMBLK2
  1

  9
$DIMSTYLE
  2
STANDARD
  9
$DIMCLRD
 70
     0
  9
$DIMCLRE
 70
     0
  9
$DIMCLRT
 70
     0
  9
$DIMTFAC
 40
1.0
  9
$DIMGAP
 40
0.09
  9
$LUNITS
 70
     2
  9
$LUPREC
 70
     3
  9
$SKETCHINC
 40
0.1
  9
$FILLETRAD
 40
0.5
  9
$AUNITS
 70
     0
  9
$AUPREC
 70
     0
  9
$MENU
  1
.
  9
$ELEVATION
 40
0.0
  9
$PELEVATION
 40
0.0
  9
$THICKNESS
 40
0.0
  9
$LIMCHECK
 70
     0
  9
$CHAMFERA
 40
0.0
  9
$CHAMFERB
 40
0.0
  9
$SKPOLY
 70
     0
  9
$TDCREATE
 40
2457776.584917951
  9
$TDUPDATE
 40
2457776.584945035
  9
$TDINDWG
 40
0.0000000116
  9
$TDUSRTIMER
 40
0.0000000116
  9
$USRTIMER
 70
     1
  9
$ANGBASE
 50
0.0
  9
$ANGDIR
 70
     0
  9
$PDMODE
 70
     0
  9
$PDSIZE
 40
0.0
  9
$PLINEWID
 40
0.0
  9
$COORDS
 70
     1
  9
$SPLFRAME
 70
     0
  9
$SPLINETYPE
 70
     6
  9
$SPLINESEGS
 70
     8
  9
$ATTDIA
 70
     0
  9
$ATTREQ
 70
     1
  9
$HANDLING
 70
     1
  9
$HANDSEED
  5
19D
  9
$SURFTAB1
 70
     6
  9
$SURFTAB2
 70
     6
  9
$SURFTYPE
 70
     6
  9
$SURFU
 70
     6
  9
$SURFV
 70
     6
  9
$UCSNAME
  2

  9
$UCSORG
 10
0.0
 20
0.0
 30
0.0
  9
$UCSXDIR
 10
1.0
 20
0.0
 30
0.0
  9
$UCSYDIR
 10
0.0
 20
1.0
 30
0.0
  9
$PUCSNAME
  2

  9
$PUCSORG
 10
0.0
 20
0.0
 30
0.0
  9
$PUCSXDIR
 10
1.0
 20
0.0
 30
0.0
  9
$PUCSYDIR
 10
0.0
 20
1.0
 30
0.0
  9
$USERI1
 70
     0
  9
$USERI2
 70
     0
  9
$USERI3
 70
     0
  9
$USERI4
 70
     0
  9
$USERI5
 70
     0
  9
$USERR1
 40
0.0
  9
$USERR2
 40
0.0
  9
$USERR3
 40
0.0
  9
$USERR4
 40
0.0
  9
$USERR5
 40
0.0
  9
$WORLDVIEW
 70
     1
  9
$SHADEDGE
 70
     3
  9
$SHADEDIF
 70
    70
  9
$TILEMODE
 70
     1
  9
$MAXACTVP
 70
    64
  9
$PLIMCHECK
 70
     0
  9
$PEXTMIN
 10
1.000000000000000E+20
 20
1.000000000000000E+20
 30
1.000000000000000E+20
  9
$PEXTMAX
 10
-1.000000000000000E+20
 20
-1.000000000000000E+20
 30
-1.000000000000000E+20
  9
$PLIMMIN
 10
0.0
 20
0.0
  9
$PLIMMAX
 10
12.0
 20
9.0
  9
$UNITMODE
 70
     0
  9
$VISRETAIN
 70
     1
  9
$PLINEGEN
 70
     0
  9
$PSLTSCALE
 70
     1
  0
ENDSEC
  0
SECTION
  2
TABLES
  0
TABLE
  2
VPORT
 70
     1
  0
VPORT
  2
*ACTIVE
 70
     0
 10
0.0
 20
0.0
 11
1.0
 21
1.0
 12
68.63112196465258
 22
68.11040621230956
 13
0.0
 23
0.0
 14
0.5
 24
0.5
 15
0.5
 25
0.5
 16
0.0
 26
0.0
 36
1.0
 17
0.0
 27
0.0
 37
0.0
 40
127.771337535698
 41
0.9999999999999982
 42
50.0
 43
0.0
 44
0.0
 50
0.0
 51
0.0
 71
     0
 72
   100
 73
     1
 74
     3
 75
     0
 76
     0
 77
     0
 78
     0
  0
ENDTAB
  0
TABLE
  2
LTYPE
 70
     1
  0
LTYPE
  2
CONTINUOUS
 70
     0
  3
Solid line
 72
    65
 73
     0
 40
0.0
  0
ENDTAB
  0
TABLE
  2
LAYER
 70
     2
  0
LAYER
  2
0
 70
     0
 62
     7
  6
CONTINUOUS
  0
LAYER
  2
DEFAULT
 70
     0
 62
     7
  6
CONTINUOUS
  0
ENDTAB
  0
TABLE
  2
STYLE
 70
     1
  0
STYLE
  2
STANDARD
 70
     0
 40
0.0
 41
1.0
 50
0.0
 71
     0
 42
0.2
  3
txt
  4

  0
ENDTAB
  0
TABLE
  2
VIEW
 70
     0
  0
ENDTAB
  0
TABLE
  2
UCS
 70
     0
  0
ENDTAB
  0
TABLE
  2
APPID
 70
     1
  0
APPID
  2
ACAD
 70
     0
  0
ENDTAB
  0
TABLE
  2
DIMSTYLE
 70
     1
  0
DIMSTYLE
  2
STANDARD
 70
     0
  3

  4

  5

  6

  7

 40
1.0
 41
0.18
 42
0.0625
 43
0.38
 44
0.18
 45
0.0
 46
0.0
 47
0.0
 48
0.0
140
0.18
141
0.09
142
0.0
143
25.4
144
1.0
145
0.0
146
1.0
147
0.09
 71
     0
 72
     0
 73
     1
 74
     1
 75
     0
 76
     0
 77
     0
 78
     0
170
     0
171
     2
172
     0
173
     0
174
     0
175
     0
176
     0
177
     0
178
     0
  0
ENDTAB
  0
ENDSEC
  0
SECTION
  2
BLOCKS
  0
BLOCK
  8
0
  2
$MODEL_SPACE
 70
     0
 10
0.0
 20
0.0
 30
0.0
  3
$MODEL_SPACE
  1

  0
ENDBLK
  5
21
  8
0
  0
BLOCK
 67
     1
  8
0
  2
$PAPER_SPACE
 70
     0
 10
0.0
 20
0.0
 30
0.0
  3
$PAPER_SPACE
  1

  0
ENDBLK
  5
1D
 67
     1
  8
0
  0
ENDSEC
  0
SECTION
  2
ENTITIES
  0
CIRCLE
  5
6F
  8
DEFAULT
 62
     3
 10
21.25425368835188
 20
121.1421079555852
 30
0.0
 40
1.0
  0
CIRCLE
  5
70
  8
DEFAULT
 62
     3
 10
9.940545251810661
 20
121.143296624376
 30
0.0
 40
1.0
  0
LINE
  5
71
  8
DEFAULT
 62
     3
 10
30.47561640259194
 20
108.3958771967716
 30
0.0
 11
33.30302852952066
 21
105.5664354285622
 31
0.0
  0
LINE
  5
72
  8
DEFAULT
 62
     3
 10
33.30302852952066
 20
105.5664354285622
 30
0.0
 11
31.18130001613834
 21
103.4456719245737
 31
0.0
  0
LINE
  5
73
  8
DEFAULT
 62
     3
 10
31.18130001613834
 20
103.4456719245737
 30
0.0
 11
28.35359077961137
 21
106.2752623671967
 31
0.0
  0
LINE
  5
74
  8
DEFAULT
 62
     3
 10
28.35359077961137
 20
106.2752623671967
 30
0.0
 11
30.47561640259194
 21
108.3958771967716
 31
0.0
  0
CIRCLE
  5
75
  8
DEFAULT
 62
     3
 10
15.59739947008116
 20
121.1427022899807
 30
0.0
 40
3.0
  0
CIRCLE
  5
76
  8
DEFAULT
 62
     3
 10
15.58566137948431
 20
9.419831479214182
 30
0.0
 40
1.0
  0
CIRCLE
  5
77
  8
DEFAULT
 62
     3
 10
15.58685004827494
 20
20.73353991575551
 30
0.0
 40
1.0
  0
LINE
  5
78
  8
DEFAULT
 62
     3
 10
28.344976218627
 20
29.94252195651838
 30
0.0
 11
31.17377478239003
 21
32.77057760322079
 31
0.0
  0
LINE
  5
79
  8
DEFAULT
 62
     3
 10
31.17377478239003
 20
32.77057760322079
 30
0.0
 11
33.29502084595124
 21
30.64933153965946
 31
0.0
  0
LINE
  5
7A
  8
DEFAULT
 62
     3
 10
33.29502084595124
 20
30.64933153965946
 30
0.0
 11
30.46607367535997
 21
27.82097874954867
 31
0.0
  0
LINE
  5
7B
  8
DEFAULT
 62
     3
 10
30.46607367535997
 20
27.82097874954867
 30
0.0
 11
28.344976218627
 21
29.94252195651838
 31
0.0
  0
CIRCLE
  5
7C
  8
DEFAULT
 62
     3
 10
15.58625571387968
 20
15.0766856974849
 30
0.0
 40
3.0
  0
CIRCLE
  5
7D
  8
DEFAULT
 62
     3
 10
121.652272306533
 20
15.06554194154616
 30
0.0
 40
3.0
  0
CIRCLE
  5
7E
  8
DEFAULT
 62
     3
 10
114.4869236300531
 20
15.06629476511331
 30
0.0
 40
1.0
  0
LINE
  5
7F
  8
DEFAULT
 62
     3
 10
106.0685203149469
 20
32.76249796974595
 30
0.0
 11
108.8959324418759
 21
29.93305620153639
 31
0.0
  0
LINE
  5
80
  8
DEFAULT
 62
     3
 10
108.8959324418759
 20
29.93305620153639
 30
0.0
 11
106.7742039284936
 21
27.81229269754819
 31
0.0
  0
LINE
  5
81
  8
DEFAULT
 62
     3
 10
106.7742039284936
 20
27.81229269754819
 30
0.0
 11
103.9464946919663
 21
30.64188314017089
 31
0.0
  0
LINE
  5
82
  8
DEFAULT
 62
     3
 10
103.9464946919663
 20
30.64188314017089
 30
0.0
 11
106.0685203149469
 21
32.76249796974595
 31
0.0
  0
CIRCLE
  5
83
  8
DEFAULT
 62
     3
 10
127.3091265248036
 20
15.06494760715067
 30
0.0
 40
1.0
  0
CIRCLE
  5
84
  8
DEFAULT
 62
     3
 10
121.6634160624754
 20
121.1315585340418
 30
0.0
 40
3.0
  0
LINE
  5
85
  8
DEFAULT
 62
     3
 10
103.954725233818
 20
105.5590612635713
 30
0.0
 11
106.7835237975813
 21
108.3871169102738
 31
0.0
  0
LINE
  5
86
  8
DEFAULT
 62
     3
 10
106.7835237975813
 20
108.3871169102738
 30
0.0
 11
108.9047698611424
 21
106.2658708467126
 31
0.0
  0
LINE
  5
87
  8
DEFAULT
 62
     3
 10
108.9047698611424
 20
106.2658708467126
 30
0.0
 11
106.0758226905512
 21
103.4375180566019
 31
0.0
  0
LINE
  5
88
  8
DEFAULT
 62
     3
 10
106.0758226905512
 20
103.4375180566019
 30
0.0
 11
103.954725233818
 21
105.5590612635713
 31
0.0
  0
CIRCLE
  5
89
  8
DEFAULT
 62
     3
 10
121.664010396871
 20
126.7884127523123
 30
0.0
 40
1.0
  0
CIRCLE
  5
8A
  8
DEFAULT
 62
     3
 10
121.6628217280803
 20
115.4747043157712
 30
0.0
 40
1.0
  0
LINE
  5
8B
  8
DEFAULT
 62
     3
 10
25.64611603494525
 20
113.2290370767003
 30
0.0
 11
23.52479569138548
 21
111.1077167331406
 31
0.0
  0
LINE
  5
8C
  8
DEFAULT
 62
     3
 10
23.52479569138548
 20
111.1077167331406
 30
0.0
 11
21.40347534782593
 21
113.2290370767003
 31
0.0
  0
LINE
  5
8D
  8
DEFAULT
 62
     3
 10
21.40347534782593
 20
113.2290370767003
 30
0.0
 11
22.4641355196057
 21
114.2896972484802
 31
0.0
  0
LINE
  5
8E
  8
DEFAULT
 62
     3
 10
22.4641355196057
 20
114.2896972484802
 30
0.0
 11
23.52479569138548
 21
115.3503574202599
 31
0.0
  0
LINE
  5
8F
  8
DEFAULT
 62
     3
 10
23.52479569138548
 20
115.3503574202599
 30
0.0
 11
24.58545586316525
 21
114.2896972484803
 31
0.0
  0
LINE
  5
90
  8
DEFAULT
 62
     3
 10
24.58545586316525
 20
114.2896972484803
 30
0.0
 11
25.64611603494525
 21
113.2290370767003
 31
0.0
  0
LINE
  5
91
  8
DEFAULT
 62
     3
 10
13.55459007664918
 20
125.3205630349962
 30
0.0
 11
11.43326973308952
 21
123.1992426914367
 31
0.0
  0
LINE
  5
92
  8
DEFAULT
 62
     3
 10
11.43326973308952
 20
123.1992426914367
 30
0.0
 11
9.311949389529971
 21
125.3205630349965
 31
0.0
  0
LINE
  5
93
  8
DEFAULT
 62
     3
 10
9.311949389529971
 20
125.3205630349965
 30
0.0
 11
10.37260956130974
 21
126.3812232067762
 31
0.0
  0
LINE
  5
94
  8
DEFAULT
 62
     3
 10
10.37260956130974
 20
126.3812232067762
 30
0.0
 11
11.43326973308952
 21
127.441883378556
 31
0.0
  0
LINE
  5
95
  8
DEFAULT
 62
     3
 10
11.43326973308952
 20
127.441883378556
 30
0.0
 11
12.49392990486929
 21
126.3812232067761
 31
0.0
  0
LINE
  5
96
  8
DEFAULT
 62
     3
 10
12.49392990486929
 20
126.3812232067761
 30
0.0
 11
13.55459007664918
 21
125.3205630349962
 31
0.0
  0
LINE
  5
97
  8
DEFAULT
 62
     3
 10
125.8412768073893
 20
123.1743679272431
 30
0.0
 11
123.7199564638295
 21
125.2956882708028
 31
0.0
  0
LINE
  5
98
  8
DEFAULT
 62
     3
 10
123.7199564638295
 20
125.2956882708028
 30
0.0
 11
125.8412768073893
 21
127.4170086143624
 31
0.0
  0
LINE
  5
99
  8
DEFAULT
 62
     3
 10
125.8412768073893
 20
127.4170086143624
 30
0.0
 11
126.9019369791691
 21
126.3563484425827
 31
0.0
  0
LINE
  5
9A
  8
DEFAULT
 62
     3
 10
126.9019369791691
 20
126.3563484425827
 30
0.0
 11
127.9625971509489
 21
125.2956882708029
 31
0.0
  0
LINE
  5
9B
  8
DEFAULT
 62
     3
 10
127.9625971509489
 20
125.2956882708029
 30
0.0
 11
126.9019369791691
 21
124.2350280990231
 31
0.0
  0
LINE
  5
9C
  8
DEFAULT
 62
     3
 10
126.9019369791691
 20
124.2350280990231
 30
0.0
 11
125.8412768073893
 21
123.1743679272431
 31
0.0
  0
LINE
  5
9D
  8
DEFAULT
 62
     3
 10
113.7497508490931
 20
111.0828419689472
 30
0.0
 11
111.6284305055336
 21
113.2041623125068
 31
0.0
  0
LINE
  5
9E
  8
DEFAULT
 62
     3
 10
111.6284305055336
 20
113.2041623125068
 30
0.0
 11
113.7497508490931
 21
115.3254826560665
 31
0.0
  0
LINE
  5
9F
  8
DEFAULT
 62
     3
 10
113.7497508490931
 20
115.3254826560665
 30
0.0
 11
114.8104110208729
 21
114.2648224842868
 31
0.0
  0
LINE
  5
A0
  8
DEFAULT
 62
     3
 10
114.8104110208729
 20
114.2648224842868
 30
0.0
 11
115.8710711926529
 21
113.2041623125069
 31
0.0
  0
LINE
  5
A1
  8
DEFAULT
 62
     3
 10
115.8710711926529
 20
113.2041623125069
 30
0.0
 11
114.8104110208729
 21
112.1435021407272
 31
0.0
  0
LINE
  5
A2
  8
DEFAULT
 62
     3
 10
114.8104110208729
 20
112.1435021407272
 30
0.0
 11
113.7497508490931
 21
111.0828419689472
 31
0.0
  0
LINE
  5
A3
  8
DEFAULT
 62
     3
 10
111.6035557413409
 20
22.97920715482634
 30
0.0
 11
113.7248760849005
 21
25.10052749838589
 31
0.0
  0
LINE
  5
A4
  8
DEFAULT
 62
     3
 10
113.7248760849005
 20
25.10052749838589
 30
0.0
 11
115.8461964284605
 21
22.97920715482623
 31
0.0
  0
LINE
  5
A5
  8
DEFAULT
 62
     3
 10
115.8461964284605
 20
22.97920715482623
 30
0.0
 11
114.7855362566805
 21
21.91854698304645
 31
0.0
  0
LINE
  5
A6
  8
DEFAULT
 62
     3
 10
114.7855362566805
 20
21.91854698304645
 30
0.0
 11
113.7248760849009
 21
20.85788681126657
 31
0.0
  0
LINE
  5
A7
  8
DEFAULT
 62
     3
 10
113.7248760849009
 20
20.85788681126657
 30
0.0
 11
112.6642159131209
 21
21.91854698304657
 31
0.0
  0
LINE
  5
A8
  8
DEFAULT
 62
     3
 10
112.6642159131209
 20
21.91854698304657
 30
0.0
 11
111.6035557413409
 21
22.97920715482634
 31
0.0
  0
LINE
  5
A9
  8
DEFAULT
 62
     3
 10
123.6950816996371
 20
10.88768119653038
 30
0.0
 11
125.8164020431967
 21
13.00900154008993
 31
0.0
  0
LINE
  5
AA
  8
DEFAULT
 62
     3
 10
125.8164020431967
 20
13.00900154008993
 30
0.0
 11
127.9377223867562
 21
10.88768119653027
 31
0.0
  0
LINE
  5
AB
  8
DEFAULT
 62
     3
 10
127.9377223867562
 20
10.88768119653027
 30
0.0
 11
126.8770622149764
 21
9.827021024750493
 31
0.0
  0
LINE
  5
AC
  8
DEFAULT
 62
     3
 10
126.8770622149764
 20
9.827021024750493
 30
0.0
 11
125.8164020431967
 21
8.76636085297072
 31
0.0
  0
LINE
  5
AD
  8
DEFAULT
 62
     3
 10
125.8164020431967
 20
8.76636085297072
 30
0.0
 11
124.7557418714169
 21
9.827021024750607
 31
0.0
  0
LINE
  5
AE
  8
DEFAULT
 62
     3
 10
124.7557418714169
 20
9.827021024750607
 30
0.0
 11
123.6950816996371
 21
10.88768119653038
 31
0.0
  0
LINE
  5
AF
  8
DEFAULT
 62
     3
 10
23.49992092726195
 20
25.12540226257956
 30
0.0
 11
25.62124127082173
 21
23.00408191901967
 31
0.0
  0
LINE
  5
B0
  8
DEFAULT
 62
     3
 10
25.62124127082173
 20
23.00408191901967
 30
0.0
 11
23.49992092726218
 21
20.88276157546012
 31
0.0
  0
LINE
  5
B1
  8
DEFAULT
 62
     3
 10
23.49992092726218
 20
20.88276157546012
 30
0.0
 11
22.43926075548229
 21
21.9434217472399
 31
0.0
  0
LINE
  5
B2
  8
DEFAULT
 62
     3
 10
22.43926075548229
 20
21.9434217472399
 30
0.0
 11
21.37860058370241
 21
23.00408191901978
 31
0.0
  0
LINE
  5
B3
  8
DEFAULT
 62
     3
 10
21.37860058370241
 20
23.00408191901978
 30
0.0
 11
22.43926075548218
 21
24.06474209079956
 31
0.0
  0
LINE
  5
B4
  8
DEFAULT
 62
     3
 10
22.43926075548218
 20
24.06474209079956
 30
0.0
 11
23.49992092726195
 21
25.12540226257956
 31
0.0
  0
LINE
  5
B5
  8
DEFAULT
 62
     3
 10
11.40839496896622
 20
13.03387630428348
 30
0.0
 11
13.52971531252577
 21
10.91255596072382
 31
0.0
  0
LINE
  5
B6
  8
DEFAULT
 62
     3
 10
13.52971531252577
 20
10.91255596072382
 30
0.0
 11
11.40839496896622
 21
8.791235617164162
 31
0.0
  0
LINE
  5
B7
  8
DEFAULT
 62
     3
 10
11.40839496896622
 20
8.791235617164162
 30
0.0
 11
10.34773479718633
 21
9.851895788943935
 31
0.0
  0
LINE
  5
B8
  8
DEFAULT
 62
     3
 10
10.34773479718633
 20
9.851895788943935
 30
0.0
 11
9.287074625406447
 21
10.91255596072382
 31
0.0
  0
LINE
  5
B9
  8
DEFAULT
 62
     3
 10
9.287074625406447
 20
10.91255596072382
 30
0.0
 11
10.34773479718645
 21
11.97321613250371
 31
0.0
  0
LINE
  5
BA
  8
DEFAULT
 62
     3
 10
10.34773479718645
 20
11.97321613250371
 30
0.0
 11
11.40839496896622
 21
13.03387630428348
 31
0.0
  0
ARC
  5
BB
  8
DEFAULT
 62
     1
 10
102.3049947555384
 20
5.497008239466496
 30
0.0
 40
11.99999999999152
 50
26.32974534994242
 51
31.79009440707326
  0
ARC
  5
BC
  8
DEFAULT
 62
     1
 10
121.6641305605902
 20
15.07739763034591
 30
0.0
 40
9.599999999992626
 50
206.3297453499575
 51
63.56415641452193
  0
ARC
  5
BD
  8
DEFAULT
 62
     1
 10
131.280352047131
 20
34.41875963825261
 30
0.0
 40
11.99999999998659
 50
238.0148098744462
 51
243.5641564145265
  0
ARC
  5
BE
  8
DEFAULT
 62
     1
 10
165.0747413890885
 20
86.8836964626496
 30
0.0
 40
74.4059882358622
 50
208.0188241880197
 51
237.3423807065429
  0
ARC
  5
BF
  8
DEFAULT
 62
     1
 10
100.721462728326
 20
52.62071294231522
 30
0.0
 40
1.499999999998861
 50
89.99999999999459
 51
207.3911683578611
  0
LINE
  5
C0
  8
DEFAULT
 62
     1
 10
100.7214627283262
 20
54.12071294231397
 30
0.0
 11
108.7211950925849
 21
54.12071294231409
 31
0.0
  0
ARC
  5
C1
  8
DEFAULT
 62
     1
 10
108.7211950925847
 20
55.32071294231299
 30
0.0
 40
1.199999999999089
 50
270.0000000000068
 51
359.999999999999
  0
LINE
  5
C2
  8
DEFAULT
 62
     1
 10
109.921195092584
 20
55.32071294231311
 30
0.0
 11
109.921195092584
 21
68.11040621114525
 31
0.0
  0
LINE
  5
C3
  8
DEFAULT
 62
     1
 10
109.921195092584
 20
68.11040621114525
 30
0.0
 11
109.921195092584
 21
80.92291788876231
 31
0.0
  0
ARC
  5
C4
  8
DEFAULT
 62
     1
 10
108.7211950925849
 20
80.92291788876231
 30
0.0
 40
1.199999999999089
 50
359.9999999999986
 51
90.0
  0
LINE
  5
C5
  8
DEFAULT
 62
     1
 10
108.7211950925847
 20
82.12291788876145
 30
0.0
 11
100.6916496287358
 21
82.12291788876134
 31
0.0
  0
ARC
  5
C6
  8
DEFAULT
 62
     1
 10
100.6916496287357
 20
83.62291788876031
 30
0.0
 40
1.499999999998861
 50
152.7583457582776
 51
270.0
  0
ARC
  5
C7
  8
DEFAULT
 62
     1
 10
164.3075815164237
 20
49.9565929920869
 30
0.0
 40
73.4749591835145
 50
122.413777033071
 51
152.124864261482
  0
ARC
  5
C8
  8
DEFAULT
 62
     1
 10
131.2445199375
 20
101.7842790031886
 30
0.0
 40
11.99999999999941
 50
116.3297453499449
 51
121.7900944070719
  0
ARC
  5
C9
  8
DEFAULT
 62
     1
 10
121.6641305466163
 20
121.1434148082473
 30
0.0
 40
9.599999999992662
 50
296.3297453499572
 51
153.5641564145227
  0
ARC
  5
CA
  8
DEFAULT
 62
     1
 10
102.3227685387129
 20
130.7596362947862
 30
0.0
 40
11.99999999998297
 50
328.0148098744452
 51
333.5641564145273
  0
LINE
  5
CB
  8
DEFAULT
 62
     1
 10
112.500989041783
 20
124.4032357889595
 30
0.0
 11
111.5832194002351
 21
122.9746597333204
 31
0.0
  0
LINE
  5
CC
  8
DEFAULT
 62
     1
 10
111.5832194002351
 20
122.9746597333204
 30
0.0
 11
110.6308103920799
 21
121.5721599429815
 31
0.0
  0
LINE
  5
CD
  8
DEFAULT
 62
     1
 10
110.6308103920799
 20
121.5721599429815
 30
0.0
 11
109.644080098749
 21
120.1955382353517
 31
0.0
  0
LINE
  5
CE
  8
DEFAULT
 62
     1
 10
109.644080098749
 20
120.1955382353517
 30
0.0
 11
108.6233466016743
 21
118.8445964278399
 31
0.0
  0
LINE
  5
CF
  8
DEFAULT
 62
     1
 10
108.6233466016743
 20
118.8445964278399
 30
0.0
 11
107.5689279822875
 21
117.5191363378551
 31
0.0
  0
LINE
  5
D0
  8
DEFAULT
 62
     1
 10
107.5689279822875
 20
117.5191363378551
 30
0.0
 11
106.4811423220203
 21
116.2189597828062
 31
0.0
  0
LINE
  5
D1
  8
DEFAULT
 62
     1
 10
106.4811423220203
 20
116.2189597828062
 30
0.0
 11
105.3603077023045
 21
114.9438685801022
 31
0.0
  0
LINE
  5
D2
  8
DEFAULT
 62
     1
 10
105.3603077023045
 20
114.9438685801022
 30
0.0
 11
104.2067422045719
 21
113.693664547152
 31
0.0
  0
LINE
  5
D3
  8
DEFAULT
 62
     1
 10
104.2067422045719
 20
113.693664547152
 30
0.0
 11
103.0207639102541
 21
112.4681495013646
 31
0.0
  0
LINE
  5
D4
  8
DEFAULT
 62
     1
 10
103.0207639102541
 20
112.4681495013646
 30
0.0
 11
101.802690900783
 21
111.2671252601489
 31
0.0
  0
LINE
  5
D5
  8
DEFAULT
 62
     1
 10
101.802690900783
 20
111.2671252601489
 30
0.0
 11
100.5528412575903
 21
110.0903936409138
 31
0.0
  0
LINE
  5
D6
  8
DEFAULT
 62
     1
 10
100.5528412575903
 20
110.0903936409138
 30
0.0
 11
99.27153306210766
 21
108.9377564610684
 31
0.0
  0
LINE
  5
D7
  8
DEFAULT
 62
     1
 10
99.27153306210766
 20
108.9377564610684
 30
0.0
 11
97.95908439576692
 21
107.8090155380215
 31
0.0
  0
LINE
  5
D8
  8
DEFAULT
 62
     1
 10
97.95908439576692
 20
107.8090155380215
 30
0.0
 11
96.61581333999982
 21
106.7039726891822
 31
0.0
  0
LINE
  5
D9
  8
DEFAULT
 62
     1
 10
96.61581333999982
 20
106.7039726891822
 30
0.0
 11
95.24203797623805
 21
105.6224297319592
 31
0.0
  0
LINE
  5
DA
  8
DEFAULT
 62
     1
 10
95.24203797623805
 20
105.6224297319592
 30
0.0
 11
93.83807638591341
 21
104.5641884837617
 31
0.0
  0
LINE
  5
DB
  8
DEFAULT
 62
     1
 10
93.83807638591341
 20
104.5641884837617
 30
0.0
 11
92.4068477979433
 21
103.5316207181211
 31
0.0
  0
LINE
  5
DC
  8
DEFAULT
 62
     1
 10
92.4068477979433
 20
103.5316207181211
 30
0.0
 11
90.94770835900053
 21
102.527366950107
 31
0.0
  0
LINE
  5
DD
  8
DEFAULT
 62
     1
 10
90.94770835900053
 20
102.527366950107
 30
0.0
 11
89.4625187924833
 21
101.5567123500635
 31
0.0
  0
LINE
  5
DE
  8
DEFAULT
 62
     1
 10
89.4625187924833
 20
101.5567123500635
 30
0.0
 11
87.95313982178976
 21
100.6249420883348
 31
0.0
  0
LINE
  5
DF
  8
DEFAULT
 62
     1
 10
87.95313982178976
 20
100.6249420883348
 30
0.0
 11
86.4214321703181
 21
99.73734133526503
 31
0.0
  0
LINE
  5
E0
  8
DEFAULT
 62
     1
 10
86.4214321703181
 20
99.73734133526503
 30
0.0
 11
84.8692565614665
 21
98.89919526119839
 31
0.0
  0
LINE
  5
E1
  8
DEFAULT
 62
     1
 10
84.8692565614665
 20
98.89919526119839
 30
0.0
 11
83.29847371863315
 21
98.115789036479
 31
0.0
  0
LINE
  5
E2
  8
DEFAULT
 62
     1
 10
83.29847371863315
 20
98.115789036479
 30
0.0
 11
82.50668606053524
 21
97.74626498335708
 31
0.0
  0
LINE
  5
E3
  8
DEFAULT
 62
     1
 10
82.50668606053524
 20
97.74626498335708
 30
0.0
 11
81.7109443652162
 21
97.39240783145104
 31
0.0
  0
LINE
  5
E4
  8
DEFAULT
 62
     1
 10
81.7109443652162
 20
97.39240783145104
 30
0.0
 11
80.91148122310081
 21
97.05487822705389
 31
0.0
  0
LINE
  5
E5
  8
DEFAULT
 62
     1
 10
80.91148122310081
 20
97.05487822705389
 30
0.0
 11
80.10852922461385
 21
96.73433681645864
 31
0.0
  0
LINE
  5
E6
  8
DEFAULT
 62
     1
 10
80.10852922461385
 20
96.73433681645864
 30
0.0
 11
79.30232096018007
 21
96.43144424595832
 31
0.0
  0
LINE
  5
E7
  8
DEFAULT
 62
     1
 10
79.30232096018007
 20
96.43144424595832
 30
0.0
 11
78.49308902022426
 21
96.14686116184596
 31
0.0
  0
LINE
  5
E8
  8
DEFAULT
 62
     1
 10
78.49308902022426
 20
96.14686116184596
 30
0.0
 11
77.68106599517118
 21
95.88124821041457
 31
0.0
  0
LINE
  5
E9
  8
DEFAULT
 62
     1
 10
77.68106599517118
 20
95.88124821041457
 30
0.0
 11
76.86648447544562
 21
95.63526603795717
 31
0.0
  0
LINE
  5
EA
  8
DEFAULT
 62
     1
 10
76.86648447544562
 20
95.63526603795717
 30
0.0
 11
76.04957705147234
 21
95.40957529076678
 31
0.0
  0
LINE
  5
EB
  8
DEFAULT
 62
     1
 10
76.04957705147234
 20
95.40957529076678
 30
0.0
 11
75.2305763136761
 21
95.20483661513641
 31
0.0
  0
LINE
  5
EC
  8
DEFAULT
 62
     1
 10
75.2305763136761
 20
95.20483661513641
 30
0.0
 11
74.4097148524817
 21
95.02171065735911
 31
0.0
  0
LINE
  5
ED
  8
DEFAULT
 62
     1
 10
74.4097148524817
 20
95.02171065735911
 30
0.0
 11
73.58722525831388
 21
94.86085806372785
 31
0.0
  0
LINE
  5
EE
  8
DEFAULT
 62
     1
 10
73.58722525831388
 20
94.86085806372785
 30
0.0
 11
72.76334012159744
 21
94.7229394805357
 31
0.0
  0
LINE
  5
EF
  8
DEFAULT
 62
     1
 10
72.76334012159744
 20
94.7229394805357
 30
0.0
 11
71.93829203275715
 21
94.60861555407564
 31
0.0
  0
LINE
  5
F0
  8
DEFAULT
 62
     1
 10
71.93829203275715
 20
94.60861555407564
 30
0.0
 11
71.11231358221775
 21
94.5185469306407
 31
0.0
  0
LINE
  5
F1
  8
DEFAULT
 62
     1
 10
71.11231358221775
 20
94.5185469306407
 30
0.0
 11
70.28563736040405
 21
94.45339425652392
 31
0.0
  0
LINE
  5
F2
  8
DEFAULT
 62
     1
 10
70.28563736040405
 20
94.45339425652392
 30
0.0
 11
69.45849595774081
 21
94.41381817801829
 31
0.0
  0
LINE
  5
F3
  8
DEFAULT
 62
     1
 10
69.45849595774081
 20
94.41381817801829
 30
0.0
 11
68.63112196465278
 21
94.40047934141683
 31
0.0
  0
LINE
  5
F4
  8
DEFAULT
 62
     1
 10
68.63112196465279
 20
94.40047934141684
 30
0.0
 11
67.8022071768941
 21
94.41370683836904
 31
0.0
  0
LINE
  5
F5
  8
DEFAULT
 62
     1
 10
67.8022071768941
 20
94.41370683836904
 30
0.0
 11
66.97352720202144
 21
94.45295791657384
 31
0.0
  0
LINE
  5
F6
  8
DEFAULT
 62
     1
 10
66.97352720202144
 20
94.45295791657384
 30
0.0
 11
66.14531685292086
 21
94.51758545639849
 31
0.0
  0
LINE
  5
F7
  8
DEFAULT
 62
     1
 10
66.14531685292086
 20
94.51758545639849
 30
0.0
 11
65.31781094247835
 21
94.60694233821027
 31
0.0
  0
LINE
  5
F8
  8
DEFAULT
 62
     1
 10
65.31781094247835
 20
94.60694233821027
 30
0.0
 11
64.49124428357997
 21
94.72038144237646
 31
0.0
  0
LINE
  5
F9
  8
DEFAULT
 62
     1
 10
64.49124428357997
 20
94.72038144237646
 30
0.0
 11
63.66585168911175
 21
94.85725564926429
 31
0.0
  0
LINE
  5
FA
  8
DEFAULT
 62
     1
 10
63.66585168911175
 20
94.85725564926429
 30
0.0
 11
62.84186797195972
 21
95.01691783924102
 31
0.0
  0
LINE
  5
FB
  8
DEFAULT
 62
     1
 10
62.84186797195972
 20
95.01691783924102
 30
0.0
 11
62.0195279450099
 21
95.19872089267395
 31
0.0
  0
LINE
  5
FC
  8
DEFAULT
 62
     1
 10
62.0195279450099
 20
95.19872089267395
 30
0.0
 11
61.19906642114833
 21
95.40201768993032
 31
0.0
  0
LINE
  5
FD
  8
DEFAULT
 62
     1
 10
61.19906642114833
 20
95.40201768993032
 30
0.0
 11
60.38071821326105
 21
95.6261611113774
 31
0.0
  0
LINE
  5
FE
  8
DEFAULT
 62
     1
 10
60.38071821326105
 20
95.6261611113774
 30
0.0
 11
59.56471813423407
 21
95.87050403738246
 31
0.0
  0
LINE
  5
FF
  8
DEFAULT
 62
     1
 10
59.56471813423407
 20
95.87050403738246
 30
0.0
 11
58.75130099695345
 21
96.13439934831277
 31
0.0
  0
LINE
  5
100
  8
DEFAULT
 62
     1
 10
58.75130099695345
 20
96.13439934831277
 30
0.0
 11
57.94070161430521
 21
96.41719992453557
 31
0.0
  0
LINE
  5
101
  8
DEFAULT
 62
     1
 10
57.94070161430521
 20
96.41719992453557
 30
0.0
 11
57.13315479917537
 21
96.71825864641815
 31
0.0
  0
LINE
  5
102
  8
DEFAULT
 62
     1
 10
57.13315479917537
 20
96.71825864641815
 30
0.0
 11
56.32889536444996
 21
97.03692839432776
 31
0.0
  0
LINE
  5
103
  8
DEFAULT
 62
     1
 10
56.32889536444996
 20
97.03692839432776
 30
0.0
 11
55.52815812301503
 21
97.37256204863166
 31
0.0
  0
LINE
  5
104
  8
DEFAULT
 62
     1
 10
55.52815812301503
 20
97.37256204863166
 30
0.0
 11
54.7311778877566
 21
97.72451248969713
 31
0.0
  0
LINE
  5
105
  8
DEFAULT
 62
     1
 10
54.7311778877566
 20
97.72451248969713
 30
0.0
 11
53.9381894715607
 21
98.09213259789144
 31
0.0
  0
LINE
  5
106
  8
DEFAULT
 62
     1
 10
53.9381894715607
 20
98.09213259789144
 30
0.0
 11
52.36512734790062
 21
98.87179333713557
 31
0.0
  0
LINE
  5
107
  8
DEFAULT
 62
     1
 10
52.36512734790062
 20
98.87179333713557
 30
0.0
 11
50.81085025512306
 21
99.70636730930218
 31
0.0
  0
LINE
  5
108
  8
DEFAULT
 62
     1
 10
50.81085025512306
 20
99.70636730930218
 30
0.0
 11
49.27723669631624
 21
100.5906775573294
 31
0.0
  0
LINE
  5
109
  8
DEFAULT
 62
     1
 10
49.27723669631624
 20
100.5906775573294
 30
0.0
 11
47.76616517456844
 21
101.5195471241553
 31
0.0
  0
LINE
  5
10A
  8
DEFAULT
 62
     1
 10
47.76616517456844
 20
101.5195471241553
 30
0.0
 11
46.27951419296789
 21
102.4877990527181
 31
0.0
  0
LINE
  5
10B
  8
DEFAULT
 62
     1
 10
46.27951419296789
 20
102.4877990527181
 30
0.0
 11
44.81916225460284
 21
103.4902563859558
 31
0.0
  0
LINE
  5
10C
  8
DEFAULT
 62
     1
 10
44.81916225460284
 20
103.4902563859558
 30
0.0
 11
43.38698786256157
 21
104.5217421668066
 31
0.0
  0
LINE
  5
10D
  8
DEFAULT
 62
     1
 10
43.38698786256157
 20
104.5217421668066
 30
0.0
 11
41.98294129975777
 21
105.5792495685753
 31
0.0
  0
LINE
  5
10E
  8
DEFAULT
 62
     1
 10
41.98294129975777
 20
105.5792495685753
 30
0.0
 11
40.60934636759882
 21
106.6607999520922
 31
0.0
  0
LINE
  5
10F
  8
DEFAULT
 62
     1
 10
40.60934636759882
 20
106.6607999520922
 30
0.0
 11
39.26652628972918
 21
107.766527387956
 31
0.0
  0
LINE
  5
110
  8
DEFAULT
 62
     1
 10
39.26652628972918
 20
107.766527387956
 30
0.0
 11
37.95480428979332
 21
108.8965659467656
 31
0.0
  0
LINE
  5
111
  8
DEFAULT
 62
     1
 10
37.95480428979332
 20
108.8965659467656
 30
0.0
 11
36.67450359143573
 21
110.0510496991198
 31
0.0
  0
LINE
  5
112
  8
DEFAULT
 62
     1
 10
36.67450359143573
 20
110.0510496991198
 30
0.0
 11
35.42594741830088
 21
111.2301127156173
 31
0.0
  0
LINE
  5
113
  8
DEFAULT
 62
     1
 10
35.42594741830088
 20
111.2301127156173
 30
0.0
 11
34.20945899403323
 21
112.4338890668571
 31
0.0
  0
LINE
  5
114
  8
DEFAULT
 62
     1
 10
34.20945899403323
 20
112.4338890668571
 30
0.0
 11
33.02536154227727
 21
113.662512823438
 31
0.0
  0
LINE
  5
115
  8
DEFAULT
 62
     1
 10
33.02536154227727
 20
113.662512823438
 30
0.0
 11
31.87397828667747
 21
114.9161180559587
 31
0.0
  0
LINE
  5
116
  8
DEFAULT
 62
     1
 10
31.87397828667747
 20
114.9161180559587
 30
0.0
 11
30.75563245087831
 21
116.1948388350181
 31
0.0
  0
LINE
  5
117
  8
DEFAULT
 62
     1
 10
30.75563245087831
 20
116.1948388350181
 30
0.0
 11
29.67064725852425
 21
117.4988092312149
 31
0.0
  0
LINE
  5
118
  8
DEFAULT
 62
     1
 10
29.67064725852425
 20
117.4988092312149
 30
0.0
 11
28.61934593325977
 21
118.8281633151482
 31
0.0
  0
LINE
  5
119
  8
DEFAULT
 62
     1
 10
28.61934593325977
 20
118.8281633151482
 30
0.0
 11
27.60205169872935
 21
120.1830351574165
 31
0.0
  0
LINE
  5
11A
  8
DEFAULT
 62
     1
 10
27.60205169872935
 20
120.1830351574165
 30
0.0
 11
26.61908777857746
 21
121.5635588286188
 31
0.0
  0
LINE
  5
11B
  8
DEFAULT
 62
     1
 10
26.61908777857746
 20
121.5635588286188
 30
0.0
 11
25.67077739644858
 21
122.9698683993538
 31
0.0
  0
LINE
  5
11C
  8
DEFAULT
 62
     1
 10
25.67077739644858
 20
122.9698683993538
 30
0.0
 11
24.75744377598717
 21
124.4020979402204
 31
0.0
  0
ARC
  5
11D
  8
DEFAULT
 62
     1
 10
34.9572491737725
 20
130.7238041851557
 30
0.0
 40
11.99999999999771
 50
206.3297453499434
 51
211.7900944070713
  0
ARC
  5
11E
  8
DEFAULT
 62
     1
 10
15.59811336871503
 20
121.1434147942733
 30
0.0
 40
9.599999999992747
 50
26.32974534995531
 51
243.5641564145243
  0
ARC
  5
11F
  8
DEFAULT
 62
     1
 10
5.981891882171979
 20
101.8020527863638
 30
0.0
 40
11.99999999999034
 50
58.01480987444507
 51
63.56415641452361
  0
ARC
  5
120
  8
DEFAULT
 62
     1
 10
-27.81249730055748
 20
49.33711610890755
 30
0.0
 40
74.4059880262326
 50
28.01882414288237
 51
57.34238074871272
  0
ARC
  5
121
  8
DEFAULT
 62
     1
 10
36.54078120263416
 20
83.6000994791108
 30
0.0
 40
1.499999999998861
 50
270.0000000000467
 51
27.39116835393715
  0
LINE
  5
122
  8
DEFAULT
 62
     1
 10
36.54078120263519
 20
82.10009947911193
 30
0.0
 11
28.54104883555586
 21
82.10009947911261
 31
0.0
  0
ARC
  5
123
  8
DEFAULT
 62
     1
 10
28.54104883555597
 20
80.90009947911359
 30
0.0
 40
1.199999999999089
 50
90.0
 51
180.0
  0
LINE
  5
124
  8
DEFAULT
 62
     1
 10
27.34104883555683
 20
80.90009947911359
 30
0.0
 11
27.34104883555683
 21
68.11040621230963
 31
0.0
  0
LINE
  5
125
  8
DEFAULT
 62
     1
 10
27.34104883555683
 20
68.11040621230963
 30
0.0
 11
27.34104883555672
 21
55.29789453265938
 31
0.0
  0
ARC
  5
126
  8
DEFAULT
 62
     1
 10
28.54104883555597
 20
55.29789453265938
 30
0.0
 40
1.199999999999089
 50
180.0
 51
270.0
  0
LINE
  5
127
  8
DEFAULT
 62
     1
 10
28.54104883555586
 20
54.09789453266025
 30
0.0
 11
36.57059429892293
 21
54.09789453266025
 31
0.0
  0
ARC
  5
128
  8
DEFAULT
 62
     1
 10
36.57059429892293
 20
52.59789453266139
 30
0.0
 40
1.499999999998861
 50
332.758345754402
 51
90.0
  0
ARC
  5
129
  8
DEFAULT
 62
     1
 10
-27.04533773077629
 20
86.2642195653485
 30
0.0
 40
73.4749593726423
 50
302.4137770721252
 51
332.1248642194225
  0
ARC
  5
12A
  8
DEFAULT
 62
     1
 10
6.017723991807841
 20
34.43653342142706
 30
0.0
 40
11.99999999999508
 50
296.3297453499422
 51
301.7900944070711
  0
ARC
  5
12B
  8
DEFAULT
 62
     1
 10
15.59811338268896
 20
15.07739761637187
 30
0.0
 40
9.59999999999271
 50
116.3297453499565
 51
333.5641564145237
  0
ARC
  5
12C
  8
DEFAULT
 62
     1
 10
34.93947539060169
 20
5.461176129828019
 30
0.0
 40
11.99999999999352
 50
148.0148098744486
 51
153.5641564145256
  0
LINE
  5
12D
  8
DEFAULT
 62
     1
 10
24.76125488752241
 20
11.81757663565976
 30
0.0
 11
25.67902452907033
 21
13.24615269129879
 31
0.0
  0
LINE
  5
12E
  8
DEFAULT
 62
     1
 10
25.67902452907033
 20
13.24615269129879
 30
0.0
 11
26.6314335372256
 21
14.64865248163768
 31
0.0
  0
LINE
  5
12F
  8
DEFAULT
 62
     1
 10
26.6314335372256
 20
14.64865248163768
 30
0.0
 11
27.61816383055645
 21
16.02527418926749
 31
0.0
  0
LINE
  5
130
  8
DEFAULT
 62
     1
 10
27.61816383055645
 20
16.02527418926749
 30
0.0
 11
28.63889732763115
 21
17.37621599677927
 31
0.0
  0
LINE
  5
131
  8
DEFAULT
 62
     1
 10
28.63889732763115
 20
17.37621599677927
 30
0.0
 11
29.69331594701795
 21
18.70167608676408
 31
0.0
  0
LINE
  5
132
  8
DEFAULT
 62
     1
 10
29.69331594701795
 20
18.70167608676408
 30
0.0
 11
30.78110160728511
 21
20.00185264181297
 31
0.0
  0
LINE
  5
133
  8
DEFAULT
 62
     1
 10
30.78110160728511
 20
20.00185264181297
 30
0.0
 11
31.90193622700087
 21
21.27694384451698
 31
0.0
  0
LINE
  5
134
  8
DEFAULT
 62
     1
 10
31.90193622700087
 20
21.27694384451698
 30
0.0
 11
33.05550172473349
 21
22.52714787746718
 31
0.0
  0
LINE
  5
135
  8
DEFAULT
 62
     1
 10
33.05550172473349
 20
22.52714787746718
 30
0.0
 11
34.24148001905122
 21
23.75266292325461
 31
0.0
  0
LINE
  5
136
  8
DEFAULT
 62
     1
 10
34.24148001905122
 20
23.75266292325461
 30
0.0
 11
35.45955302852233
 21
24.95368716447032
 31
0.0
  0
LINE
  5
137
  8
DEFAULT
 62
     1
 10
35.45955302852233
 20
24.95368716447032
 30
0.0
 11
36.70940267171505
 21
26.13041878370537
 31
0.0
  0
LINE
  5
138
  8
DEFAULT
 62
     1
 10
36.70940267171505
 20
26.13041878370537
 30
0.0
 11
37.99071086719765
 21
27.28305596355082
 31
0.0
  0
LINE
  5
139
  8
DEFAULT
 62
     1
 10
37.99071086719765
 20
27.28305596355082
 30
0.0
 11
39.30315953353837
 21
28.41179688659771
 31
0.0
  0
LINE
  5
13A
  8
DEFAULT
 62
     1
 10
39.30315953353837
 20
28.41179688659771
 30
0.0
 11
40.64643058930547
 21
29.51683973543709
 31
0.0
  0
LINE
  5
13B
  8
DEFAULT
 62
     1
 10
40.64643058930547
 20
29.51683973543709
 30
0.0
 11
42.02020595306721
 21
30.59838269266001
 31
0.0
  0
LINE
  5
13C
  8
DEFAULT
 62
     1
 10
42.02020595306721
 20
30.59838269266001
 30
0.0
 11
43.42416754339183
 21
31.65662394085754
 31
0.0
  0
LINE
  5
13D
  8
DEFAULT
 62
     1
 10
43.42416754339183
 20
31.65662394085754
 30
0.0
 11
44.85539613136193
 21
32.68919170649818
 31
0.0
  0
LINE
  5
13E
  8
DEFAULT
 62
     1
 10
44.85539613136193
 20
32.68919170649818
 30
0.0
 11
46.31453557030467
 21
33.69344547451233
 31
0.0
  0
LINE
  5
13F
  8
DEFAULT
 62
     1
 10
46.31453557030467
 20
33.69344547451233
 30
0.0
 11
47.79972513682189
 21
34.66410007455585
 31
0.0
  0
LINE
  5
140
  8
DEFAULT
 62
     1
 10
47.79972513682189
 20
34.66410007455585
 30
0.0
 11
49.30910410751542
 21
35.59587033628456
 31
0.0
  0
LINE
  5
141
  8
DEFAULT
 62
     1
 10
49.30910410751542
 20
35.59587033628456
 30
0.0
 11
50.84081175898706
 21
36.48347108935432
 31
0.0
  0
LINE
  5
142
  8
DEFAULT
 62
     1
 10
50.84081175898706
 20
36.48347108935432
 30
0.0
 11
52.39298736783865
 21
37.32161716342098
 31
0.0
  0
LINE
  5
143
  8
DEFAULT
 62
     1
 10
52.39298736783865
 20
37.32161716342098
 30
0.0
 11
53.963770210672
 21
38.10502338814038
 31
0.0
  0
LINE
  5
144
  8
DEFAULT
 62
     1
 10
53.963770210672
 20
38.10502338814038
 30
0.0
 11
54.75555786876991
 21
38.4745474412623
 31
0.0
  0
LINE
  5
145
  8
DEFAULT
 62
     1
 10
54.75555786876991
 20
38.4745474412623
 30
0.0
 11
55.55129956408895
 21
38.82840459316836
 31
0.0
  0
LINE
  5
146
  8
DEFAULT
 62
     1
 10
55.55129956408895
 20
38.82840459316836
 30
0.0
 11
56.35076270620434
 21
39.16593419756552
 31
0.0
  0
LINE
  5
147
  8
DEFAULT
 62
     1
 10
56.35076270620434
 20
39.16593419756552
 30
0.0
 11
57.15371470469131
 21
39.48647560816077
 31
0.0
  0
LINE
  5
148
  8
DEFAULT
 62
     1
 10
57.15371470469131
 20
39.48647560816077
 30
0.0
 11
57.9599229691251
 21
39.78936817866108
 31
0.0
  0
LINE
  5
149
  8
DEFAULT
 62
     1
 10
57.9599229691251
 20
39.78936817866108
 30
0.0
 11
58.76915490908092
 21
40.07395126277345
 31
0.0
  0
LINE
  5
14A
  8
DEFAULT
 62
     1
 10
58.76915490908092
 20
40.07395126277345
 30
0.0
 11
59.581177934134
 21
40.33956421420484
 31
0.0
  0
LINE
  5
14B
  8
DEFAULT
 62
     1
 10
59.581177934134
 20
40.33956421420484
 30
0.0
 11
60.39575945385958
 21
40.58554638666224
 31
0.0
  0
LINE
  5
14C
  8
DEFAULT
 62
     1
 10
60.39575945385958
 20
40.58554638666224
 30
0.0
 11
61.21266687783288
 21
40.81123713385264
 31
0.0
  0
LINE
  5
14D
  8
DEFAULT
 62
     1
 10
61.21266687783288
 20
40.81123713385264
 30
0.0
 11
62.03166761562913
 21
41.015975809483
 31
0.0
  0
LINE
  5
14E
  8
DEFAULT
 62
     1
 10
62.03166761562913
 20
41.015975809483
 30
0.0
 11
62.85252907682356
 21
41.19910176726032
 31
0.0
  0
LINE
  5
14F
  8
DEFAULT
 62
     1
 10
62.85252907682356
 20
41.19910176726032
 30
0.0
 11
63.67501867099139
 21
41.35995436089156
 31
0.0
  0
LINE
  5
150
  8
DEFAULT
 62
     1
 10
63.67501867099139
 20
41.35995436089156
 30
0.0
 11
64.49890380770786
 21
41.49787294408372
 31
0.0
  0
LINE
  5
151
  8
DEFAULT
 62
     1
 10
64.49890380770786
 20
41.49787294408372
 30
0.0
 11
65.3239518965482
 21
41.61219687054378
 31
0.0
  0
LINE
  5
152
  8
DEFAULT
 62
     1
 10
65.3239518965482
 20
41.61219687054378
 30
0.0
 11
66.14993034708762
 21
41.7022654939787
 31
0.0
  0
LINE
  5
153
  8
DEFAULT
 62
     1
 10
66.14993034708762
 20
41.7022654939787
 30
0.0
 11
66.97660656890135
 21
41.76741816809547
 31
0.0
  0
LINE
  5
154
  8
DEFAULT
 62
     1
 10
66.97660656890135
 20
41.76741816809547
 30
0.0
 11
67.80374797156463
 21
41.80699424660109
 31
0.0
  0
LINE
  5
155
  8
DEFAULT
 62
     1
 10
67.80374797156463
 20
41.80699424660109
 30
0.0
 11
68.63112196465266
 21
41.82033308320252
 31
0.0
  0
LINE
  5
156
  8
DEFAULT
 62
     1
 10
68.63112196465266
 20
41.82033308320252
 30
0.0
 11
69.46003675241136
 21
41.80710558625033
 31
0.0
  0
LINE
  5
157
  8
DEFAULT
 62
     1
 10
69.46003675241136
 20
41.80710558625033
 30
0.0
 11
70.288716727284
 21
41.76785450804553
 31
0.0
  0
LINE
  5
158
  8
DEFAULT
 62
     1
 10
70.288716727284
 20
41.76785450804553
 30
0.0
 11
71.11692707638458
 21
41.70322696822087
 31
0.0
  0
LINE
  5
159
  8
DEFAULT
 62
     1
 10
71.11692707638458
 20
41.70322696822087
 30
0.0
 11
71.94443298682708
 21
41.61387008640909
 31
0.0
  0
LINE
  5
15A
  8
DEFAULT
 62
     1
 10
71.94443298682708
 20
41.61387008640909
 30
0.0
 11
72.77099964572545
 21
41.50043098224292
 31
0.0
  0
LINE
  5
15B
  8
DEFAULT
 62
     1
 10
72.77099964572545
 20
41.50043098224292
 30
0.0
 11
73.59639224019367
 21
41.3635567753551
 31
0.0
  0
LINE
  5
15C
  8
DEFAULT
 62
     1
 10
73.59639224019367
 20
41.3635567753551
 30
0.0
 11
74.4203759573457
 21
41.20389458537836
 31
0.0
  0
LINE
  5
15D
  8
DEFAULT
 62
     1
 10
74.4203759573457
 20
41.20389458537836
 30
0.0
 11
75.2427159842955
 21
41.02209153194543
 31
0.0
  0
LINE
  5
15E
  8
DEFAULT
 62
     1
 10
75.2427159842955
 20
41.02209153194543
 30
0.0
 11
76.06317750815705
 21
40.81879473468906
 31
0.0
  0
LINE
  5
15F
  8
DEFAULT
 62
     1
 10
76.06317750815705
 20
40.81879473468906
 30
0.0
 11
76.88152571604434
 21
40.59465131324198
 31
0.0
  0
LINE
  5
160
  8
DEFAULT
 62
     1
 10
76.88152571604434
 20
40.59465131324198
 30
0.0
 11
77.6975257950713
 21
40.35030838723691
 31
0.0
  0
LINE
  5
161
  8
DEFAULT
 62
     1
 10
77.6975257950713
 20
40.35030838723691
 30
0.0
 11
78.5109429323519
 21
40.08641307630661
 31
0.0
  0
LINE
  5
162
  8
DEFAULT
 62
     1
 10
78.5109429323519
 20
40.08641307630661
 30
0.0
 11
79.32154231500014
 21
39.80361250008381
 31
0.0
  0
LINE
  5
163
  8
DEFAULT
 62
     1
 10
79.32154231500014
 20
39.80361250008381
 30
0.0
 11
80.12908913012998
 21
39.50255377820123
 31
0.0
  0
LINE
  5
164
  8
DEFAULT
 62
     1
 10
80.12908913012998
 20
39.50255377820123
 30
0.0
 11
80.93334856485538
 21
39.18388403029162
 31
0.0
  0
LINE
  5
165
  8
DEFAULT
 62
     1
 10
80.93334856485538
 20
39.18388403029162
 30
0.0
 11
81.7340858062903
 21
38.84825037598772
 31
0.0
  0
LINE
  5
166
  8
DEFAULT
 62
     1
 10
81.7340858062903
 20
38.84825037598772
 30
0.0
 11
82.53106604154871
 21
38.49629993492226
 31
0.0
  0
LINE
  5
167
  8
DEFAULT
 62
     1
 10
82.53106604154871
 20
38.49629993492226
 30
0.0
 11
83.32405445774461
 21
38.12867982672795
 31
0.0
  0
LINE
  5
168
  8
DEFAULT
 62
     1
 10
83.32405445774461
 20
38.12867982672795
 30
0.0
 11
84.89711658140467
 21
37.34901908748382
 31
0.0
  0
LINE
  5
169
  8
DEFAULT
 62
     1
 10
84.89711658140467
 20
37.34901908748382
 30
0.0
 11
86.45139367418224
 21
36.5144451153172
 31
0.0
  0
LINE
  5
16A
  8
DEFAULT
 62
     1
 10
86.45139367418224
 20
36.5144451153172
 30
0.0
 11
87.98500723298903
 21
35.63013486728998
 31
0.0
  0
LINE
  5
16B
  8
DEFAULT
 62
     1
 10
87.98500723298903
 20
35.63013486728998
 30
0.0
 11
89.49607875473683
 21
34.70126530046405
 31
0.0
  0
LINE
  5
16C
  8
DEFAULT
 62
     1
 10
89.49607875473683
 20
34.70126530046405
 30
0.0
 11
90.98272973633738
 21
33.73301337190129
 31
0.0
  0
LINE
  5
16D
  8
DEFAULT
 62
     1
 10
90.98272973633738
 20
33.73301337190129
 30
0.0
 11
92.4430816747024
 21
32.73055603866359
 31
0.0
  0
LINE
  5
16E
  8
DEFAULT
 62
     1
 10
92.4430816747024
 20
32.73055603866359
 30
0.0
 11
93.87525606674365
 21
31.69907025781283
 31
0.0
  0
LINE
  5
16F
  8
DEFAULT
 62
     1
 10
93.87525606674365
 20
31.69907025781283
 30
0.0
 11
95.27930262954743
 21
30.6415628560441
 31
0.0
  0
LINE
  5
170
  8
DEFAULT
 62
     1
 10
95.27930262954743
 20
30.6415628560441
 30
0.0
 11
96.65289756170638
 21
29.56001247252724
 31
0.0
  0
LINE
  5
171
  8
DEFAULT
 62
     1
 10
96.65289756170638
 20
29.56001247252724
 30
0.0
 11
97.99571763957601
 21
28.45428503666343
 31
0.0
  0
LINE
  5
172
  8
DEFAULT
 62
     1
 10
97.99571763957601
 20
28.45428503666343
 30
0.0
 11
99.30743963951187
 21
27.32424647785384
 31
0.0
  0
LINE
  5
173
  8
DEFAULT
 62
     1
 10
99.30743963951187
 20
27.32424647785384
 30
0.0
 11
100.5877403378694
 21
26.16976272549967
 31
0.0
  0
LINE
  5
174
  8
DEFAULT
 62
     1
 10
100.5877403378694
 20
26.16976272549967
 30
0.0
 11
101.8362965110043
 21
24.99069970900209
 31
0.0
  0
LINE
  5
175
  8
DEFAULT
 62
     1
 10
101.8362965110043
 20
24.99069970900209
 30
0.0
 11
103.052784935272
 21
23.78692335776228
 31
0.0
  0
LINE
  5
176
  8
DEFAULT
 62
     1
 10
103.052784935272
 20
23.78692335776228
 30
0.0
 11
104.2368823870279
 21
22.55829960118144
 31
0.0
  0
LINE
  5
177
  8
DEFAULT
 62
     1
 10
104.2368823870279
 20
22.55829960118144
 30
0.0
 11
105.3882656426277
 21
21.30469436866073
 31
0.0
  0
LINE
  5
178
  8
DEFAULT
 62
     1
 10
105.3882656426277
 20
21.30469436866073
 30
0.0
 11
106.5066114784269
 21
20.02597358960134
 31
0.0
  0
LINE
  5
179
  8
DEFAULT
 62
     1
 10
106.5066114784269
 20
20.02597358960134
 30
0.0
 11
107.591596670781
 21
18.72200319340446
 31
0.0
  0
LINE
  5
17A
  8
DEFAULT
 62
     1
 10
107.591596670781
 20
18.72200319340446
 30
0.0
 11
108.6428979960455
 21
17.39264910947126
 31
0.0
  0
LINE
  5
17B
  8
DEFAULT
 62
     1
 10
108.6428979960455
 20
17.39264910947126
 30
0.0
 11
109.660192230576
 21
16.03777726720293
 31
0.0
  0
LINE
  5
17C
  8
DEFAULT
 62
     1
 10
109.660192230576
 20
16.03777726720293
 30
0.0
 11
110.6431561507279
 21
14.65725359600064
 31
0.0
  0
LINE
  5
17D
  8
DEFAULT
 62
     1
 10
110.6431561507279
 20
14.65725359600064
 30
0.0
 11
111.5914665328568
 21
13.25094402526558
 31
0.0
  0
LINE
  5
17E
  8
DEFAULT
 62
     1
 10
111.5914665328568
 20
13.25094402526558
 30
0.0
 11
112.5048001533183
 21
11.81871448439894
 31
0.0
  0
LINE
  5
17F
  8
DEFAULT
 62
     3
 10
33.34104883555001
 20
58.89789453265554
 30
0.0
 11
39.34104883555013
 21
58.89789453265543
 31
0.0
  0
LINE
  5
180
  8
DEFAULT
 62
     3
 10
39.34104883555013
 20
58.89789453265543
 30
0.0
 11
39.34104883555001
 21
61.89789453265566
 31
0.0
  0
LINE
  5
181
  8
DEFAULT
 62
     3
 10
39.34104883555001
 20
61.89789453265566
 30
0.0
 11
33.34104883555001
 21
61.89789453265566
 31
0.0
  0
LINE
  5
182
  8
DEFAULT
 62
     3
 10
33.34104883555001
 20
61.89789453265566
 30
0.0
 11
33.34104883555001
 21
58.89789453265554
 31
0.0
  0
LINE
  5
183
  8
DEFAULT
 62
     3
 10
33.34104883555001
 20
74.30009947911675
 30
0.0
 11
39.34104883555001
 21
74.30009947911687
 31
0.0
  0
LINE
  5
184
  8
DEFAULT
 62
     3
 10
39.34104883555001
 20
74.30009947911687
 30
0.0
 11
39.34104883555001
 21
77.30009947911675
 31
0.0
  0
LINE
  5
185
  8
DEFAULT
 62
     3
 10
39.34104883555001
 20
77.30009947911675
 30
0.0
 11
33.34104883555001
 21
77.30009947911675
 31
0.0
  0
LINE
  5
186
  8
DEFAULT
 62
     3
 10
33.34104883555001
 20
77.30009947911675
 30
0.0
 11
33.34104883555001
 21
74.30009947911675
 31
0.0
  0
LINE
  5
187
  8
DEFAULT
 62
     3
 10
97.92119509375557
 20
74.32291789196383
 30
0.0
 11
103.9211950937556
 21
74.32291789196371
 31
0.0
  0
LINE
  5
188
  8
DEFAULT
 62
     3
 10
103.9211950937556
 20
74.32291789196371
 30
0.0
 11
103.9211950937555
 21
77.32291789196383
 31
0.0
  0
LINE
  5
189
  8
DEFAULT
 62
     3
 10
103.9211950937555
 20
77.32291789196383
 30
0.0
 11
97.92119509375546
 21
77.32291789196383
 31
0.0
  0
LINE
  5
18A
  8
DEFAULT
 62
     3
 10
97.92119509375546
 20
77.32291789196383
 30
0.0
 11
97.92119509375557
 21
74.32291789196383
 31
0.0
  0
LINE
  5
18B
  8
DEFAULT
 62
     3
 10
97.92119509375557
 20
58.9207129455025
 30
0.0
 11
103.9211950937555
 21
58.9207129455025
 31
0.0
  0
LINE
  5
18C
  8
DEFAULT
 62
     3
 10
103.9211950937555
 20
58.9207129455025
 30
0.0
 11
103.9211950937556
 21
61.92071294550261
 31
0.0
  0
LINE
  5
18D
  8
DEFAULT
 62
     3
 10
103.9211950937556
 20
61.92071294550261
 30
0.0
 11
97.92119509375557
 21
61.9207129455025
 31
0.0
  0
LINE
  5
18E
  8
DEFAULT
 62
     3
 10
97.92119509375557
 20
61.9207129455025
 30
0.0
 11
97.92119509375557
 21
58.9207129455025
 31
0.0
  0
LINE
  5
18F
  8
DEFAULT
 62
     3
 10
60.43112309182978
 20
73.11040742258685
 30
0.0
 11
60.43112309182978
 21
62.11040742258685
 31
0.0
  0
LINE
  5
190
  8
DEFAULT
 62
     3
 10
60.43112309182978
 20
62.11040742258685
 30
0.0
 11
61.93112309182978
 21
62.11040742258685
 31
0.0
  0
LINE
  5
191
  8
DEFAULT
 62
     3
 10
61.93112309182978
 20
62.11040742258685
 30
0.0
 11
63.43112309182978
 21
62.11040742258685
 31
0.0
  0
LINE
  5
192
  8
DEFAULT
 62
     3
 10
63.43112309182978
 20
62.11040742258679
 30
0.0
 11
63.43112309182978
 21
73.11040742258685
 31
0.0
  0
LINE
  5
193
  8
DEFAULT
 62
     3
 10
63.43112309182978
 20
73.11040742258685
 30
0.0
 11
63.43112309182978
 21
76.11040742258685
 31
0.0
  0
LINE
  5
194
  8
DEFAULT
 62
     3
 10
63.43112309182978
 20
76.11040742258685
 30
0.0
 11
60.43112309182978
 21
76.11040742258685
 31
0.0
  0
LINE
  5
195
  8
DEFAULT
 62
     3
 10
60.43112309182978
 20
76.11040742258685
 30
0.0
 11
60.43112309182978
 21
73.11040742258685
 31
0.0
  0
ENDSEC
  0
EOF
