  0
SECTION
  2
HEADER
  9
$ACADVER
  1
AC1009
  9
$DWGCODEPAGE
  3
ansi_1252
  9
$INSBASE
 10
0.0
 20
0.0
 30
0.0
  9
$EXTMIN
 10
126.9346910471905
 20
31.47451834176128
 30
0.0
  9
$EXTMAX
 10
183.3003667841524
 20
117.8958352199884
 30
0.0
  9
$LIMMIN
 10
0.0
 20
0.0
  9
$LIMMAX
 10
12.0
 20
9.0
  9
$ORTHOMODE
 70
     0
  9
$REGENMODE
 70
     1
  9
$FILLMODE
 70
     1
  9
$QTEXTMODE
 70
     0
  9
$MIRRTEXT
 70
     1
  9
$DRAGMODE
 70
     2
  9
$LTSCALE
 40
1.0
  9
$OSMODE
 70
    37
  9
$ATTMODE
 70
     1
  9
$TEXTSIZE
 40
0.2
  9
$TRACEWID
 40
0.05
  9
$TEXTSTYLE
  7
STANDARD
  9
$CLAYER
  8
DEFAULT
  9
$CELTYPE
  6
BYLAYER
  9
$CECOLOR
 62
   256
  9
$DIMSCALE
 40
1.0
  9
$DIMASZ
 40
0.18
  9
$DIMEXO
 40
0.0625
  9
$DIMDLI
 40
0.38
  9
$DIMRND
 40
0.0
  9
$DIMDLE
 40
0.0
  9
$DIMEXE
 40
0.18
  9
$DIMTP
 40
0.0
  9
$DIMTM
 40
0.0
  9
$DIMTXT
 40
0.18
  9
$DIMCEN
 40
0.09
  9
$DIMTSZ
 40
0.0
  9
$DIMTOL
 70
     0
  9
$DIMLIM
 70
     0
  9
$DIMTIH
 70
     1
  9
$DIMTOH
 70
     1
  9
$DIMSE1
 70
     0
  9
$DIMSE2
 70
     0
  9
$DIMTAD
 70
     0
  9
$DIMZIN
 70
     0
  9
$DIMBLK
  1

  9
$DIMASO
 70
     1
  9
$DIMSHO
 70
     1
  9
$DIMPOST
  1

  9
$DIMAPOST
  1

  9
$DIMALT
 70
     0
  9
$DIMALTD
 70
     2
  9
$DIMALTF
 40
25.4
  9
$DIMLFAC
 40
1.0
  9
$DIMTOFL
 70
     0
  9
$DIMTVP
 40
0.0
  9
$DIMTIX
 70
     0
  9
$DIMSOXD
 70
     0
  9
$DIMSAH
 70
     0
  9
$DIMBLK1
  1

  9
$DIMBLK2
  1

  9
$DIMSTYLE
  2
STANDARD
  9
$DIMCLRD
 70
     0
  9
$DIMCLRE
 70
     0
  9
$DIMCLRT
 70
     0
  9
$DIMTFAC
 40
1.0
  9
$DIMGAP
 40
0.09
  9
$LUNITS
 70
     2
  9
$LUPREC
 70
     3
  9
$SKETCHINC
 40
0.1
  9
$FILLETRAD
 40
0.5
  9
$AUNITS
 70
     0
  9
$AUPREC
 70
     0
  9
$MENU
  1
.
  9
$ELEVATION
 40
0.0
  9
$PELEVATION
 40
0.0
  9
$THICKNESS
 40
0.0
  9
$LIMCHECK
 70
     0
  9
$CHAMFERA
 40
0.0
  9
$CHAMFERB
 40
0.0
  9
$SKPOLY
 70
     0
  9
$TDCREATE
 40
2457776.584504526
  9
$TDUPDATE
 40
2457776.584585776
  9
$TDINDWG
 40
0.0000000116
  9
$TDUSRTIMER
 40
0.0000000116
  9
$USRTIMER
 70
     1
  9
$ANGBASE
 50
0.0
  9
$ANGDIR
 70
     0
  9
$PDMODE
 70
     0
  9
$PDSIZE
 40
0.0
  9
$PLINEWID
 40
0.0
  9
$COORDS
 70
     1
  9
$SPLFRAME
 70
     0
  9
$SPLINETYPE
 70
     6
  9
$SPLINESEGS
 70
     8
  9
$ATTDIA
 70
     0
  9
$ATTREQ
 70
     1
  9
$HANDLING
 70
     1
  9
$HANDSEED
  5
A8
  9
$SURFTAB1
 70
     6
  9
$SURFTAB2
 70
     6
  9
$SURFTYPE
 70
     6
  9
$SURFU
 70
     6
  9
$SURFV
 70
     6
  9
$UCSNAME
  2

  9
$UCSORG
 10
0.0
 20
0.0
 30
0.0
  9
$UCSXDIR
 10
1.0
 20
0.0
 30
0.0
  9
$UCSYDIR
 10
0.0
 20
1.0
 30
0.0
  9
$PUCSNAME
  2

  9
$PUCSORG
 10
0.0
 20
0.0
 30
0.0
  9
$PUCSXDIR
 10
1.0
 20
0.0
 30
0.0
  9
$PUCSYDIR
 10
0.0
 20
1.0
 30
0.0
  9
$USERI1
 70
     0
  9
$USERI2
 70
     0
  9
$USERI3
 70
     0
  9
$USERI4
 70
     0
  9
$USERI5
 70
     0
  9
$USERR1
 40
0.0
  9
$USERR2
 40
0.0
  9
$USERR3
 40
0.0
  9
$USERR4
 40
0.0
  9
$USERR5
 40
0.0
  9
$WORLDVIEW
 70
     1
  9
$SHADEDGE
 70
     3
  9
$SHADEDIF
 70
    70
  9
$TILEMODE
 70
     1
  9
$MAXACTVP
 70
    64
  9
$PLIMCHECK
 70
     0
  9
$PEXTMIN
 10
1.000000000000000E+20
 20
1.000000000000000E+20
 30
1.000000000000000E+20
  9
$PEXTMAX
 10
-1.000000000000000E+20
 20
-1.000000000000000E+20
 30
-1.000000000000000E+20
  9
$PLIMMIN
 10
0.0
 20
0.0
  9
$PLIMMAX
 10
12.0
 20
9.0
  9
$UNITMODE
 70
     0
  9
$VISRETAIN
 70
     1
  9
$PLINEGEN
 70
     0
  9
$PSLTSCALE
 70
     1
  0
ENDSEC
  0
SECTION
  2
TABLES
  0
TABLE
  2
VPORT
 70
     1
  0
VPORT
  2
*ACTIVE
 70
     0
 10
0.0
 20
0.0
 11
1.0
 21
1.0
 12
155.1175289156715
 22
74.68517678087483
 13
0.0
 23
0.0
 14
0.5
 24
0.5
 15
0.5
 25
0.5
 16
0.0
 26
0.0
 36
1.0
 17
0.0
 27
0.0
 37
0.0
 40
88.14974321579166
 41
0.6522195885580473
 42
50.0
 43
0.0
 44
0.0
 50
0.0
 51
0.0
 71
     0
 72
   100
 73
     1
 74
     3
 75
     0
 76
     0
 77
     0
 78
     0
  0
ENDTAB
  0
TABLE
  2
LTYPE
 70
     1
  0
LTYPE
  2
CONTINUOUS
 70
     0
  3
Solid line
 72
    65
 73
     0
 40
0.0
  0
ENDTAB
  0
TABLE
  2
LAYER
 70
     2
  0
LAYER
  2
0
 70
     0
 62
     7
  6
CONTINUOUS
  0
LAYER
  2
DEFAULT
 70
     0
 62
     7
  6
CONTINUOUS
  0
ENDTAB
  0
TABLE
  2
STYLE
 70
     1
  0
STYLE
  2
STANDARD
 70
     0
 40
0.0
 41
1.0
 50
0.0
 71
     0
 42
0.2
  3
txt
  4

  0
ENDTAB
  0
TABLE
  2
VIEW
 70
     0
  0
ENDTAB
  0
TABLE
  2
UCS
 70
     0
  0
ENDTAB
  0
TABLE
  2
APPID
 70
     1
  0
APPID
  2
ACAD
 70
     0
  0
ENDTAB
  0
TABLE
  2
DIMSTYLE
 70
     1
  0
DIMSTYLE
  2
STANDARD
 70
     0
  3

  4

  5

  6

  7

 40
1.0
 41
0.18
 42
0.0625
 43
0.38
 44
0.18
 45
0.0
 46
0.0
 47
0.0
 48
0.0
140
0.18
141
0.09
142
0.0
143
25.4
144
1.0
145
0.0
146
1.0
147
0.09
 71
     0
 72
     0
 73
     1
 74
     1
 75
     0
 76
     0
 77
     0
 78
     0
170
     0
171
     2
172
     0
173
     0
174
     0
175
     0
176
     0
177
     0
178
     0
  0
ENDTAB
  0
ENDSEC
  0
SECTION
  2
BLOCKS
  0
BLOCK
  8
0
  2
$MODEL_SPACE
 70
     0
 10
0.0
 20
0.0
 30
0.0
  3
$MODEL_SPACE
  1

  0
ENDBLK
  5
21
  8
0
  0
BLOCK
 67
     1
  8
0
  2
$PAPER_SPACE
 70
     0
 10
0.0
 20
0.0
 30
0.0
  3
$PAPER_SPACE
  1

  0
ENDBLK
  5
1D
 67
     1
  8
0
  0
ENDSEC
  0
SECTION
  2
ENTITIES
  0
LINE
  5
6F
  8
DEFAULT
 62
     1
 10
183.3003667841524
 20
116.8958352199884
 30
0.0
 11
183.3003667841524
 21
44.31583521998841
 31
0.0
  0
ARC
  5
70
  8
DEFAULT
 62
     1
 10
182.3003667841524
 20
44.31583521998841
 30
0.0
 40
1.0
 50
270.0
 51
0.0
  0
LINE
  5
71
  8
DEFAULT
 62
     1
 10
182.3003667841524
 20
43.31583521998841
 30
0.0
 11
140.7403667841313
 21
43.31583521998841
 31
0.0
  0
LINE
  5
72
  8
DEFAULT
 62
     1
 10
140.7403667841313
 20
43.31583521998841
 30
0.0
 11
140.7403667841313
 21
45.31583521998841
 31
0.0
  0
LINE
  5
73
  8
DEFAULT
 62
     1
 10
140.7403667841313
 20
45.31583521998841
 30
0.0
 11
137.7403667841313
 21
45.31583521998841
 31
0.0
  0
LINE
  5
74
  8
DEFAULT
 62
     1
 10
137.7403667841313
 20
45.31583521998841
 30
0.0
 11
137.7403667841313
 21
48.31583521998841
 31
0.0
  0
LINE
  5
75
  8
DEFAULT
 62
     1
 10
137.7403667841313
 20
48.31583521998841
 30
0.0
 11
137.7403667841313
 21
51.31583521998841
 31
0.0
  0
LINE
  5
76
  8
DEFAULT
 62
     1
 10
137.7403667841313
 20
51.31583521998841
 30
0.0
 11
140.7403667841313
 21
51.31583521998841
 31
0.0
  0
LINE
  5
77
  8
DEFAULT
 62
     1
 10
140.7403667841313
 20
51.31583521998841
 30
0.0
 11
140.7403667841313
 21
53.31583521998841
 31
0.0
  0
LINE
  5
78
  8
DEFAULT
 62
     1
 10
140.7403667841313
 20
53.31583521998841
 30
0.0
 11
173.1803667841479
 21
53.31583521998841
 31
0.0
  0
ARC
  5
79
  8
DEFAULT
 62
     1
 10
173.1803667841479
 20
54.31583521998841
 30
0.0
 40
1.0
 50
270.0000000000016
 51
0.0
  0
LINE
  5
7A
  8
DEFAULT
 62
     1
 10
174.1803667841479
 20
54.31583521998841
 30
0.0
 11
174.1803667841479
 21
96.69643521998
 31
0.0
  0
LINE
  5
7B
  8
DEFAULT
 62
     1
 10
174.1803667841479
 20
96.69643521998
 30
0.0
 11
174.1803667841479
 21
100.4964352199818
 31
0.0
  0
LINE
  5
7C
  8
DEFAULT
 62
     1
 10
174.1803667841479
 20
100.4964352199818
 30
0.0
 11
174.1803667841479
 21
102.2558352199826
 31
0.0
  0
LINE
  5
7D
  8
DEFAULT
 62
     1
 10
174.1803667841479
 20
102.2558352199826
 30
0.0
 11
174.1803667841479
 21
106.8958352199884
 31
0.0
  0
ARC
  5
7E
  8
DEFAULT
 62
     1
 10
173.1803667841479
 20
106.8958352199884
 30
0.0
 40
1.0
 50
0.0
 51
90.0
  0
LINE
  5
7F
  8
DEFAULT
 62
     1
 10
173.1803667841479
 20
107.8958352199884
 30
0.0
 11
140.7403667841313
 21
107.8958352199884
 31
0.0
  0
LINE
  5
80
  8
DEFAULT
 62
     1
 10
140.7403667841313
 20
107.8958352199884
 30
0.0
 11
140.7403667841313
 21
109.8958352199884
 31
0.0
  0
LINE
  5
81
  8
DEFAULT
 62
     1
 10
140.7403667841313
 20
109.8958352199884
 30
0.0
 11
137.7403667841313
 21
109.8958352199884
 31
0.0
  0
LINE
  5
82
  8
DEFAULT
 62
     1
 10
137.7403667841313
 20
109.8958352199884
 30
0.0
 11
137.7403667841313
 21
112.8958352199884
 31
0.0
  0
LINE
  5
83
  8
DEFAULT
 62
     1
 10
137.7403667841313
 20
112.8958352199884
 30
0.0
 11
137.7403667841313
 21
115.8958352199884
 31
0.0
  0
LINE
  5
84
  8
DEFAULT
 62
     1
 10
137.7403667841313
 20
115.8958352199884
 30
0.0
 11
140.7403667841313
 21
115.8958352199884
 31
0.0
  0
LINE
  5
85
  8
DEFAULT
 62
     1
 10
140.7403667841313
 20
115.8958352199884
 30
0.0
 11
140.7403667841313
 21
117.8958352199884
 31
0.0
  0
LINE
  5
86
  8
DEFAULT
 62
     1
 10
140.7403667841313
 20
117.8958352199884
 30
0.0
 11
182.3003667841524
 21
117.8958352199884
 31
0.0
  0
ARC
  5
87
  8
DEFAULT
 62
     1
 10
182.3003667841524
 20
116.8958352199884
 30
0.0
 40
1.0
 50
0.0
 51
90.00000000000162
  0
LINE
  5
88
  8
DEFAULT
 62
     1
 10
126.9346910471905
 20
32.47451834176128
 30
0.0
 11
126.9346910471905
 21
105.0545183417613
 31
0.0
  0
ARC
  5
89
  8
DEFAULT
 62
     1
 10
127.9346910471905
 20
105.0545183417613
 30
0.0
 40
1.0
 50
90.0
 51
180.0
  0
LINE
  5
8A
  8
DEFAULT
 62
     1
 10
127.9346910471905
 20
106.0545183417613
 30
0.0
 11
169.4946910472117
 21
106.0545183417613
 31
0.0
  0
LINE
  5
8B
  8
DEFAULT
 62
     1
 10
169.4946910472117
 20
106.0545183417613
 30
0.0
 11
169.4946910472117
 21
104.0545183417613
 31
0.0
  0
LINE
  5
8C
  8
DEFAULT
 62
     1
 10
169.4946910472117
 20
104.0545183417613
 30
0.0
 11
172.4946910472117
 21
104.0545183417613
 31
0.0
  0
LINE
  5
8D
  8
DEFAULT
 62
     1
 10
172.4946910472117
 20
104.0545183417613
 30
0.0
 11
172.4946910472117
 21
101.0545183417613
 31
0.0
  0
LINE
  5
8E
  8
DEFAULT
 62
     1
 10
172.4946910472117
 20
101.0545183417613
 30
0.0
 11
172.4946910472117
 21
98.05451834176125
 31
0.0
  0
LINE
  5
8F
  8
DEFAULT
 62
     1
 10
172.4946910472117
 20
98.05451834176125
 30
0.0
 11
169.4946910472117
 21
98.05451834176125
 31
0.0
  0
LINE
  5
90
  8
DEFAULT
 62
     1
 10
169.4946910472117
 20
98.05451834176125
 30
0.0
 11
169.4946910472117
 21
96.05451834176125
 31
0.0
  0
LINE
  5
91
  8
DEFAULT
 62
     1
 10
169.4946910472117
 20
96.05451834176125
 30
0.0
 11
137.054691047195
 21
96.05451834176125
 31
0.0
  0
ARC
  5
92
  8
DEFAULT
 62
     1
 10
137.054691047195
 20
95.05451834176125
 30
0.0
 40
1.0
 50
90.00000000000162
 51
180.0
  0
LINE
  5
93
  8
DEFAULT
 62
     1
 10
136.054691047195
 20
95.05451834176125
 30
0.0
 11
136.054691047195
 21
52.67391834176966
 31
0.0
  0
LINE
  5
94
  8
DEFAULT
 62
     1
 10
136.054691047195
 20
52.67391834176966
 30
0.0
 11
136.054691047195
 21
48.87391834176788
 31
0.0
  0
LINE
  5
95
  8
DEFAULT
 62
     1
 10
136.054691047195
 20
48.87391834176788
 30
0.0
 11
136.054691047195
 21
47.11451834176706
 31
0.0
  0
LINE
  5
96
  8
DEFAULT
 62
     1
 10
136.054691047195
 20
47.11451834176706
 30
0.0
 11
136.054691047195
 21
42.47451834176128
 31
0.0
  0
ARC
  5
97
  8
DEFAULT
 62
     1
 10
137.054691047195
 20
42.47451834176128
 30
0.0
 40
1.0
 50
180.0
 51
270.0
  0
LINE
  5
98
  8
DEFAULT
 62
     1
 10
137.054691047195
 20
41.47451834176128
 30
0.0
 11
169.4946910472117
 21
41.47451834176128
 31
0.0
  0
LINE
  5
99
  8
DEFAULT
 62
     1
 10
169.4946910472117
 20
41.47451834176128
 30
0.0
 11
169.4946910472117
 21
39.47451834176128
 31
0.0
  0
LINE
  5
9A
  8
DEFAULT
 62
     1
 10
169.4946910472117
 20
39.47451834176128
 30
0.0
 11
172.4946910472117
 21
39.47451834176128
 31
0.0
  0
LINE
  5
9B
  8
DEFAULT
 62
     1
 10
172.4946910472117
 20
39.47451834176128
 30
0.0
 11
172.4946910472117
 21
36.47451834176128
 31
0.0
  0
LINE
  5
9C
  8
DEFAULT
 62
     1
 10
172.4946910472117
 20
36.47451834176128
 30
0.0
 11
172.4946910472117
 21
33.47451834176128
 31
0.0
  0
LINE
  5
9D
  8
DEFAULT
 62
     1
 10
172.4946910472117
 20
33.47451834176128
 30
0.0
 11
169.4946910472117
 21
33.47451834176128
 31
0.0
  0
LINE
  5
9E
  8
DEFAULT
 62
     1
 10
169.4946910472117
 20
33.47451834176128
 30
0.0
 11
169.4946910472117
 21
31.47451834176128
 31
0.0
  0
LINE
  5
9F
  8
DEFAULT
 62
     1
 10
169.4946910472117
 20
31.47451834176128
 30
0.0
 11
127.9346910471906
 21
31.47451834176128
 31
0.0
  0
ARC
  5
A0
  8
DEFAULT
 62
     1
 10
127.9346910471905
 20
32.47451834176128
 30
0.0
 40
1.0
 50
180.0
 51
270.0000000000024
  0
ENDSEC
  0
EOF
